# xmcd CD database file
#
# Track frame offsets:
#	150
#	18275
#	43275
#	62525
#	85717
#	108032
#	130277
#	151157
#	173822
#	198500
#
# Disc length: 2908 seconds
#
# Revision: 0
# Processed by: cddbd v1.5PL3 Copyright (c) Steve Scherf et al.
# Submitted via: CDex 1.51
#
DISCID=760b5a0a
DTITLE=かとうれいこ - Querido -ケリード-
DYEAR=1992
DGENRE=JPop
TTITLE0=ハーフムーンは傷ついてる
TTITLE1=引き潮ホテル
TTITLE2=洗いたての時間
TTITLE3=沈黙のリフレイン
TTITLE4=A Shooting Star
TTITLE5=BLUE TABOO
TTITLE6=PAR AVION
TTITLE7=Favorite
TTITLE8=AGAIN
TTITLE9=なつかしいあなた
EXTD=YEAR: 1992.07.22
EXTT0=
EXTT1=
EXTT2=
EXTT3=
EXTT4=
EXTT5=
EXTT6=
EXTT7=
EXTT8=
EXTT9=
PLAYORDER=
